<svg xmlns="http://www.w3.org/2000/svg" viewBox="0 0 100 100" width="100" height="100">
        <defs>
            <filter id="sh_cln" x="-20%" y="-20%" width="140%" height="140%">
                <feDropShadow dx="0" dy="4" stdDeviation="4" flood-opacity="0.2"/>
            </filter>
        </defs>
        <rect width="100" height="100" rx="24" fill="#ecfdf5"/>
        <g filter="url(#sh_cln)" transform="translate(16, 14)">
            <!-- Spray Bottle -->
            <path d="M 24 20 L 32 12 L 40 12 L 40 20 L 44 26 L 44 64 L 20 64 L 20 26 Z" fill="#10b981"/>
            <path d="M 20 16 L 14 22 L 20 22 Z" fill="#059669"/>
            <rect x="26" y="34" width="12" height="16" rx="2" fill="#ffffff" opacity="0.9"/>
            <!-- Sparkles -->
            <polygon points="52,18 54,23 59,25 54,27 52,32 50,27 45,25 50,23" fill="#facc15"/>
            <polygon points="56,38 57,41 60,42 57,43 56,46 55,43 52,42 55,41" fill="#38bdf8"/>
        </g>
    </svg>